<?xml version="1.0" encoding="UTF-8" standalone="no"?>
<svg
   fill="none"
   viewBox="0 0 144 144"
   version="1.1"
   id="svg208"
   width="144"
   height="144"
   xmlns="http://www.w3.org/2000/svg"
   xmlns:svg="http://www.w3.org/2000/svg">
  <defs
     id="defs212" />
  <style
     id="style206">
        path { fill: #000; }
        @media (prefers-color-scheme: dark) {
            path { fill: #FFF; }
        }
    </style>
  <path
     style="fill:#277fb8;fill-opacity:1;stroke:none;stroke-width:2.05958px;stroke-linecap:butt;stroke-linejoin:miter;stroke-opacity:1"
     d="m 94.28116,45.023948 46.21636,-0.413826 v 3.724436 c 0,0 -7.94346,-0.206911 -7.63397,1.758761 l -0.51579,81.523821 c 0,0 0,3.41406 2.06323,3.51752 2.06323,0.10348 6.39602,-0.10347 6.39602,-0.10347 0,0 0.10324,4.86246 -0.30949,4.86246 -0.41263,0 -46.21636,0.10335 -46.21636,0.10335 v -7.1385 c 0,0 5.3644,0.82765 5.3644,-1.65531 V 92.303617 H 79.116405 l -0.618964,38.485863 c 0,0 0.310736,2.33472 4.745419,2.48296 3.09486,0.10347 4.53913,0.10347 4.53913,0.10347 l -0.10324,6.41431 -43.637341,0.10335 0.10324,-6.31084 c 0,0 8.356081,0.93111 8.356081,-1.96568 0,-2.89679 0.309482,-81.730722 0.309482,-81.730722 0,0 0.103241,-1.551848 -2.682194,-1.655307 -2.785354,-0.103452 -2.991675,-0.103452 -2.991675,-0.103452 v -3.20715 l 38.169747,-0.310367 0.10324,3.827894 -5.467542,0.103451 c 0,0 -1.753749,-0.310372 -1.65059,1.965674 0.10324,2.276045 -0.10324,35.795988 0.309483,35.69253 0.412643,-0.103451 21.251289,-0.310368 21.251289,-0.310368 l 0.20639,-35.589074 c 0,0 0.61896,-1.758761 -2.57902,-1.862216 -3.19802,-0.103451 -3.30118,-0.103451 -3.30118,-0.103451 z"
     id="path531" />
  <path
     style="fill:#215378;fill-opacity:1;stroke:none;stroke-width:2.17117px;stroke-linecap:butt;stroke-linejoin:miter;stroke-opacity:1"
     d="M 5.4796506,3.2518874 32.574846,3.7071379 32.991694,36.94039 50.08251,36.48514 50.91621,3.7071379 78.845104,2.7966346 79.261952,98.85439 H 50.499361 L 50.91621,62.889639 H 32.991694 L 33.825391,98.85439 H 4.6459508 Z"
     id="path529" />
  <g
     aria-label="O T"
     id="text10326"
     style="font-size:21.3333px;line-height:1.25;baseline-shift:baseline;fill:#ffffff"
     transform="matrix(1.1237611,0,0,1.1269753,-1.0732355,-4.5966529)">
    <path
       d="m 67.294691,52.652379 q 0,3.708327 -2.124997,5.895824 -2.124997,2.17708 -5.874991,2.17708 -3.739577,0 -5.864574,-2.17708 -2.124997,-2.187497 -2.124997,-5.895824 0,-3.739578 2.124997,-5.906241 2.124997,-2.17708 5.864574,-2.17708 3.729161,0 5.864574,2.17708 2.135414,2.166663 2.135414,5.906241 z m -5.302075,3.927077 q 0.583332,-0.708332 0.864582,-1.666664 0.281249,-0.968748 0.281249,-2.27083 0,-1.395831 -0.322916,-2.374996 -0.322916,-0.979165 -0.843749,-1.583331 -0.531249,-0.624999 -1.229164,-0.906248 -0.687499,-0.28125 -1.437498,-0.28125 -0.760416,0 -1.437498,0.270833 -0.666666,0.270833 -1.229165,0.895832 -0.520832,0.583332 -0.854165,1.614581 -0.322916,1.020831 -0.322916,2.374996 0,1.385414 0.312499,2.364579 0.322917,0.968749 0.843749,1.583331 0.520833,0.614583 1.218748,0.906249 0.697916,0.291666 1.468748,0.291666 0.770832,0 1.468748,-0.291666 0.697915,-0.302083 1.218748,-0.927082 z"
       style="font-weight:bold;-inkscape-font-specification:'sans-serif, Bold';text-align:center;text-anchor:middle;fill:#cccccc"
       id="path10380" />
    <path
       d="M 66.143651,74.558594 H 61.299908 V 87.068991 H 57.299915 V 74.558594 h -4.843743 v -2.999995 h 13.687479 z"
       style="font-weight:bold;-inkscape-font-specification:'sans-serif, Bold';text-align:center;text-anchor:middle;fill:#cccccc"
       id="path10382" />
  </g>
</svg>
