<?xml version="1.0" encoding="UTF-8" standalone="no"?>
<svg
   fill="none"
   viewBox="0 0 144 144"
   version="1.1"
   id="svg208"
   width="144"
   height="144"
   xmlns="http://www.w3.org/2000/svg"
   xmlns:svg="http://www.w3.org/2000/svg">
  <defs
     id="defs212" />
  <style
     id="style206">
        path { fill: #000; }
        @media (prefers-color-scheme: dark) {
            path { fill: #FFF; }
        }
    </style>
  <g
     id="g10489"
     transform="translate(1.3363628,2.979718)">
    <path
       style="fill:#277fb8;fill-opacity:1;stroke:none;stroke-width:1.75754px;stroke-linecap:butt;stroke-linejoin:miter;stroke-opacity:1"
       d="m 101.23393,28.519092 39.43874,-0.353138 v 3.178248 c 0,0 -6.77855,-0.176568 -6.51445,1.500839 l -0.44015,69.568359 c 0,0 0,2.91339 1.76066,3.00168 1.76066,0.0883 5.45804,-0.0883 5.45804,-0.0883 0,0 0.0881,4.14938 -0.2641,4.14938 -0.35212,0 -39.43874,0.0882 -39.43874,0.0882 v -6.09164 c 0,0 4.57771,0.70627 4.57771,-1.41256 V 68.865205 H 88.293083 L 87.76489,101.70712 c 0,0 0.265167,1.99233 4.049507,2.11883 2.640997,0.0883 3.873463,0.0883 3.873463,0.0883 l -0.0881,5.47365 -37.23793,0.0882 0.0881,-5.38536 c 0,0 7.130663,0.79456 7.130663,-1.67741 0,-2.471976 0.264097,-69.744925 0.264097,-69.744925 0,0 0.0881,-1.32427 -2.288851,-1.412557 -2.376882,-0.08828 -2.552946,-0.08828 -2.552946,-0.08828 v -2.736822 l 32.572162,-0.264852 0.0881,3.266534 -4.665731,0.08828 c 0,0 -1.496562,-0.264856 -1.408531,1.677408 0.0881,1.942263 -0.0881,30.546512 0.264097,30.458226 0.352129,-0.08828 18.13479,-0.264853 18.13479,-0.264853 l 0.17613,-30.369941 c 0,0 0.52819,-1.500839 -2.20081,-1.589123 -2.72903,-0.08828 -2.81706,-0.08828 -2.81706,-0.08828 z"
       id="path531" />
    <path
       style="fill:#215378;fill-opacity:1;stroke:none;stroke-width:1.84433px;stroke-linecap:butt;stroke-linejoin:miter;stroke-opacity:1"
       d="m 4.0177862,28.663762 23.0163998,0.386719 0.354098,28.23046 14.518037,-0.386719 0.708199,-27.843741 23.724597,-0.77344 0.354098,81.597629 H 42.260422 L 42.61452,79.323901 H 27.388284 L 28.09648,109.87467 H 3.309588 Z"
       id="path529" />
    <g
       aria-label="O T"
       id="text10326"
       style="font-size:21.3333px;line-height:1.25;baseline-shift:baseline;fill:#ffffff"
       transform="matrix(1.1237611,0,0,1.1269753,-0.40959833,-3.5763709)">
      <path
         d="m 67.294691,52.652379 q 0,3.708327 -2.124997,5.895824 -2.124997,2.17708 -5.874991,2.17708 -3.739577,0 -5.864574,-2.17708 -2.124997,-2.187497 -2.124997,-5.895824 0,-3.739578 2.124997,-5.906241 2.124997,-2.17708 5.864574,-2.17708 3.729161,0 5.864574,2.17708 2.135414,2.166663 2.135414,5.906241 z m -5.302075,3.927077 q 0.583332,-0.708332 0.864582,-1.666664 0.281249,-0.968748 0.281249,-2.27083 0,-1.395831 -0.322916,-2.374996 -0.322916,-0.979165 -0.843749,-1.583331 -0.531249,-0.624999 -1.229164,-0.906248 -0.687499,-0.28125 -1.437498,-0.28125 -0.760416,0 -1.437498,0.270833 -0.666666,0.270833 -1.229165,0.895832 -0.520832,0.583332 -0.854165,1.614581 -0.322916,1.020831 -0.322916,2.374996 0,1.385414 0.312499,2.364579 0.322917,0.968749 0.843749,1.583331 0.520833,0.614583 1.218748,0.906249 0.697916,0.291666 1.468748,0.291666 0.770832,0 1.468748,-0.291666 0.697915,-0.302083 1.218748,-0.927082 z"
         style="font-weight:bold;-inkscape-font-specification:'sans-serif, Bold';text-align:center;text-anchor:middle;fill:#cccccc"
         id="path10380" />
      <path
         d="M 66.143651,74.558594 H 61.299908 V 87.068991 H 57.299915 V 74.558594 h -4.843743 v -2.999995 h 13.687479 z"
         style="font-weight:bold;-inkscape-font-specification:'sans-serif, Bold';text-align:center;text-anchor:middle;fill:#cccccc"
         id="path10382" />
    </g>
  </g>
</svg>
